<?xml version="1.0" standalone="no"?>
<!DOCTYPE svg PUBLIC "-//W3C//DTD SVG 20010904//EN"
 "http://www.w3.org/TR/2001/REC-SVG-20010904/DTD/svg10.dtd">
<svg version="1.0" xmlns="http://www.w3.org/2000/svg"
 width="4500.000000pt" height="4500.000000pt" viewBox="0 0 4500.000000 4500.000000"
 preserveAspectRatio="xMidYMid meet">

<g transform="translate(0.000000,4500.000000) scale(0.100000,-0.100000)"
fill="#000000" stroke="none">
<path d="M28083 33660 c-172 -18 -339 -62 -456 -121 -132 -66 -255 -175 -302
-266 -10 -21 -20 -40 -22 -42 -1 -2 -27 24 -58 58 -163 176 -456 261 -792 232
-128 -11 -340 -49 -434 -77 l-54 -17 106 -18 c402 -68 771 -220 997 -408 129
-108 234 -268 271 -412 l18 -71 12 89 c17 135 58 241 142 364 157 233 502 466
917 623 128 48 139 54 111 60 -55 11 -371 15 -456 6z"/>
<path d="M21156 31899 c-140 -12 -336 -53 -474 -100 -64 -22 -121 -44 -125
-48 -4 -4 54 -20 130 -36 169 -34 378 -94 487 -139 91 -38 186 -91 146 -82
-61 15 -209 18 -258 6 -29 -6 -54 -15 -57 -20 -2 -4 46 -29 108 -55 94 -41
424 -200 436 -211 2 -2 -4 -15 -14 -30 -13 -20 -14 -28 -5 -34 19 -12 -51 -83
-117 -117 -122 -64 -256 -76 -433 -39 -186 38 -379 51 -551 37 -300 -24 -533
-70 -704 -138 -130 -51 -155 -65 -446 -256 -402 -264 -741 -663 -974 -1149
-63 -132 -135 -303 -135 -321 0 -5 19 8 43 30 132 122 416 333 593 442 89 54
282 147 289 139 2 -2 -22 -25 -53 -52 -122 -105 -249 -270 -240 -311 2 -10 38
5 133 57 171 93 484 241 664 312 237 95 525 184 536 166 12 -19 1 -89 -14 -95
-9 -4 -45 -23 -81 -43 l-65 -37 78 -5 77 -5 -29 -60 c-36 -77 -126 -197 -227
-304 -47 -50 -74 -86 -66 -89 7 -2 -16 -34 -58 -79 -38 -41 -68 -79 -65 -84 3
-4 -33 -50 -81 -101 -402 -429 -670 -950 -764 -1489 -42 -242 -38 -576 11
-821 18 -90 66 -268 74 -276 2 -2 9 16 15 39 64 244 133 450 202 599 39 84
127 234 134 228 2 -2 -3 -24 -10 -50 -31 -100 -39 -248 -19 -320 5 -20 23 -24
23 -6 0 17 174 340 260 483 95 158 223 345 314 459 79 99 246 279 253 272 2
-2 -34 -81 -81 -175 -47 -94 -86 -173 -86 -176 0 -2 48 31 106 75 229 173 502
315 751 394 78 24 274 68 280 63 1 -2 -97 -65 -218 -141 -121 -76 -218 -140
-216 -142 2 -2 41 11 88 30 137 55 401 143 599 201 185 53 467 121 474 114 3
-2 -7 -38 -21 -79 -62 -183 5 -382 164 -491 l43 -30 -84 -95 c-203 -227 -478
-586 -663 -864 -761 -1143 -1226 -2443 -1387 -3880 -51 -453 -67 -740 -67
-1237 0 -291 -3 -374 -13 -382 -7 -6 -21 -29 -31 -51 -10 -22 -22 -40 -27 -40
-4 0 -8 -7 -8 -15 0 -8 -4 -15 -9 -15 -5 0 -12 -8 -15 -18 -7 -20 -183 -99
-421 -187 -243 -91 -578 -187 -817 -235 l-57 -11 -6 -67 c-7 -70 -84 -541
-439 -2707 l-215 -1311 -145 -354 c-383 -942 -448 -1097 -464 -1118 -9 -12
-257 -217 -551 -456 l-534 -433 -566 -167 -566 -166 -1745 0 -1745 -1 -405
-376 -405 -377 -152 -450 c-83 -248 -406 -1207 -717 -2131 -1215 -3603 -1086
-3208 -1251 -3834 -80 -304 -145 -561 -144 -570 0 -9 82 -203 182 -431 l182
-415 282 -3 282 -2 1628 319 1628 320 1550 411 1550 412 1730 545 1730 545
700 128 700 128 1596 1085 1595 1085 447 137 446 138 1963 -187 c1080 -103
1981 -188 2003 -189 39 -2 125 61 2600 1902 1408 1047 2563 1907 2567 1910 3
3 319 1273 702 2822 l696 2816 0 262 0 262 -617 827 c-339 455 -930 1246
-1312 1757 -382 512 -764 1023 -849 1137 l-154 208 -91 -84 c-613 -565 -1313
-959 -1934 -1090 -345 -73 -760 -77 -1074 -11 -330 70 -591 164 -1190 431
-779 346 -1074 441 -1559 501 -197 24 -643 24 -852 0 -719 -84 -1398 -302
-2209 -708 -402 -201 -734 -393 -1484 -862 -744 -464 -849 -526 -856 -508 -3
9 -12 81 -18 161 -7 79 -15 148 -17 152 -3 5 -139 8 -302 9 -171 1 -282 4
-262 9 19 4 153 23 298 41 l262 33 0 35 c0 20 -5 141 -10 270 -7 153 -7 329 0
509 5 152 9 277 7 278 -1 1 -128 21 -282 44 -154 23 -282 44 -284 46 -2 2 126
4 286 4 l290 0 12 138 c25 280 77 632 135 917 17 86 21 122 13 127 -6 4 -57
24 -114 44 -56 21 -101 39 -100 41 2 1 55 -8 117 -22 63 -13 116 -23 117 -21
2 1 21 74 42 162 47 190 115 425 170 586 l40 118 -107 76 c-59 42 -111 81
-117 86 -5 6 46 -18 114 -52 68 -33 124 -60 126 -58 1 2 17 44 35 93 45 126
148 377 213 522 50 111 54 123 38 136 -9 7 -56 42 -106 77 -126 89 -125 90 12
21 68 -34 126 -61 130 -61 5 0 18 24 31 53 12 28 56 115 97 192 41 77 75 142
75 145 0 3 -23 21 -51 40 -71 48 -73 59 -4 22 32 -18 62 -32 66 -32 7 0 179
292 179 303 0 3 -37 31 -82 63 -117 80 -117 83 1 24 57 -28 104 -50 106 -48 2
2 47 71 100 153 53 83 129 196 168 252 l71 101 29 -50 c62 -109 194 -199 312
-213 l53 -7 -44 -129 c-24 -71 -60 -168 -79 -216 -19 -48 -33 -88 -31 -90 1
-2 36 46 76 107 40 61 75 109 76 107 6 -6 -25 -115 -56 -195 -36 -95 -130
-255 -199 -339 -28 -35 -49 -63 -46 -63 3 0 46 21 96 46 50 25 93 43 96 41 8
-9 -142 -129 -258 -206 -64 -43 -182 -111 -263 -152 -80 -41 -146 -78 -146
-83 0 -4 43 -7 95 -4 52 2 95 3 95 1 0 -1 -30 -18 -67 -37 -72 -36 -213 -84
-327 -112 -43 -11 -63 -20 -54 -25 31 -17 188 -51 290 -61 388 -41 836 132
1148 442 149 147 209 249 261 438 12 43 25 86 28 96 5 14 27 -28 79 -157 40
-97 88 -222 109 -279 20 -57 39 -106 42 -110 4 -5 -10 101 -31 235 -21 133
-37 251 -35 261 3 24 73 -98 125 -219 113 -261 185 -569 199 -859 7 -138 4
-140 82 56 26 68 57 141 69 163 l22 40 -6 -70 c-17 -215 -65 -461 -140 -713
-52 -175 -147 -441 -205 -575 -36 -83 -37 -88 -16 -81 62 19 162 114 229 216
17 27 33 46 36 43 3 -2 -7 -42 -22 -88 -39 -126 -171 -381 -296 -570 -86 -132
-105 -167 -88 -161 13 4 75 33 138 64 442 221 791 580 1036 1062 161 318 261
647 305 1003 16 129 16 457 0 560 -36 235 -137 483 -298 733 -29 45 -50 82
-47 82 4 0 56 -34 118 -76 l111 -77 -55 59 c-30 33 -120 125 -200 207 -163
166 -162 168 35 67 312 -158 654 -443 894 -745 l64 -80 -7 40 c-4 22 -23 112
-42 199 -46 210 -43 223 26 116 124 -193 253 -485 359 -814 47 -144 143 -514
171 -659 10 -49 14 -56 26 -46 51 42 96 181 110 334 l7 90 20 -44 c32 -74 75
-261 93 -407 11 -96 17 -219 17 -397 0 -142 3 -254 7 -250 22 24 114 170 159
251 184 331 282 677 297 1047 33 778 -372 1572 -989 1941 -124 74 -403 212
-578 286 -356 151 -710 245 -1044 278 -106 11 -123 15 -147 38 -15 14 -26 28
-23 31 3 2 -9 20 -27 38 -29 30 -30 33 -11 33 12 0 23 4 25 10 4 12 272 81
463 119 155 31 444 75 573 87 l73 7 -22 23 c-41 43 -197 90 -344 103 l-80 7
90 21 c50 12 131 28 180 35 103 14 627 17 805 5 l115 -8 -65 51 c-593 467
-1243 603 -1859 388 -47 -16 -140 -55 -206 -86 l-120 -57 -110 35 -110 36 -6
140 c-4 77 -10 160 -13 184 -33 212 -100 445 -174 604 -149 316 -523 663 -954
882 -312 159 -622 248 -952 274 -142 11 -175 11 -320 -1z"/>
<path d="M30773 31494 c3 -3 47 -25 99 -48 152 -69 273 -150 374 -250 105
-105 149 -182 167 -295 l12 -71 18 49 c70 197 347 348 732 399 l60 8 -73 23
c-113 34 -215 51 -316 51 -141 0 -260 -39 -335 -109 -19 -18 -35 -30 -36 -29
-1 2 -12 20 -24 40 -52 87 -176 168 -306 202 -104 26 -392 50 -372 30z"/>
<path d="M28621 27929 c-231 -27 -411 -121 -471 -244 l-21 -44 -47 33 c-128
91 -301 97 -537 18 l-110 -37 50 -3 c104 -5 272 -34 359 -62 152 -49 266 -131
325 -233 l28 -48 6 63 c19 179 212 393 482 532 78 40 75 41 -64 25z"/>
<path d="M33309 12797 c-94 -32 -173 -82 -254 -162 -101 -99 -136 -179 -120
-280 9 -64 63 -125 111 -125 l34 0 -32 45 c-46 64 -51 150 -15 229 51 111 208
244 345 292 59 21 63 24 32 24 -19 0 -65 -11 -101 -23z"/>
<path d="M33240 12561 c0 -6 5 -13 11 -17 6 -3 29 -34 50 -67 64 -99 55 -142
-49 -243 -31 -31 -40 -47 -36 -60 13 -36 37 -54 70 -54 l34 0 -17 35 -17 35
56 58 c87 89 95 119 54 200 -35 68 -92 122 -127 122 -16 0 -29 -4 -29 -9z"/>
<path d="M33685 12460 c-7 -12 12 -12 40 0 18 8 17 9 -7 9 -15 1 -30 -3 -33
-9z"/>
<path d="M32555 12236 c-153 -49 -314 -175 -373 -292 -39 -77 -46 -124 -28
-194 20 -78 48 -117 100 -141 37 -17 86 -25 86 -15 0 2 -18 21 -39 43 -48 48
-76 133 -67 202 20 146 186 315 381 388 l60 22 -40 0 c-22 0 -58 -6 -80 -13z"/>
<path d="M33536 12202 c-3 -5 8 -16 24 -25 16 -10 47 -44 69 -77 48 -72 62
-137 37 -175 -21 -33 -21 -35 13 -35 103 0 99 134 -7 252 -47 53 -120 85 -136
60z"/>
<path d="M32510 12010 c-12 -8 -10 -14 12 -37 86 -92 101 -234 54 -508 -27
-162 -30 -226 -12 -290 24 -82 72 -123 113 -97 10 6 7 19 -10 52 -30 61 -29
189 2 374 32 189 28 317 -12 399 -39 78 -110 130 -147 107z"/>
<path d="M33375 11983 c-46 -24 -93 -73 -105 -109 -25 -76 57 -164 153 -164
l32 0 -31 19 c-37 22 -72 65 -80 98 -9 35 13 77 62 123 24 22 44 43 44 45 0
11 -47 3 -75 -12z"/>
<path d="M33093 11773 c-11 -10 -28 -39 -37 -65 -10 -27 -36 -64 -62 -90 -24
-23 -47 -52 -50 -63 -3 -11 -8 -28 -11 -39 -7 -25 148 93 180 137 28 38 59
116 51 128 -9 15 -51 10 -71 -8z"/>
<path d="M31728 11611 c-216 -69 -354 -267 -335 -477 22 -236 216 -470 438
-529 30 -8 68 -15 84 -14 24 0 20 3 -25 18 -116 37 -194 93 -281 201 -144 179
-178 396 -90 569 49 95 165 192 276 230 55 18 57 20 25 20 -19 0 -61 -8 -92
-18z"/>
<path d="M31784 11444 c-7 -3 9 -26 36 -54 49 -51 228 -283 297 -385 38 -57
63 -113 63 -141 0 -7 -14 -29 -30 -48 -24 -27 -27 -35 -15 -40 20 -7 64 10 93
36 27 26 30 84 6 130 -28 54 -184 267 -292 398 -67 82 -123 118 -158 104z"/>
<path d="M30975 11036 c-98 -31 -242 -122 -308 -195 -43 -47 -82 -120 -97
-184 -14 -53 6 -150 42 -199 22 -32 88 -67 126 -68 20 0 17 5 -22 43 -54 51
-82 133 -72 206 20 146 186 315 381 388 55 20 57 22 25 22 -19 0 -53 -6 -75
-13z"/>
<path d="M30922 10812 c-9 -6 -5 -15 14 -33 91 -84 108 -242 59 -519 -26 -143
-25 -264 2 -322 24 -52 53 -73 89 -64 l25 7 -20 24 c-48 62 -51 166 -10 405
29 177 25 313 -14 393 -37 75 -110 130 -145 109z"/>
<path d="M31513 10573 c-11 -10 -27 -38 -36 -63 -17 -45 -37 -72 -96 -123 -17
-15 -31 -34 -31 -41 0 -8 -3 -22 -7 -32 -9 -24 150 99 180 139 14 17 30 49 36
69 7 21 17 40 22 44 15 9 0 24 -25 24 -13 0 -33 -8 -43 -17z"/>
<path d="M29627 10050 c-37 -11 -114 -75 -138 -114 -14 -23 -19 -50 -19 -103
0 -96 16 -175 106 -517 75 -287 84 -335 69 -388 -10 -37 33 -82 66 -70 19 7
22 17 25 87 4 73 -2 103 -66 345 -112 427 -129 520 -110 600 13 53 29 74 92
122 35 27 43 38 32 42 -18 7 -20 7 -57 -4z"/>
<path d="M29730 9692 c0 -27 17 -45 93 -100 l68 -49 -50 -37 c-48 -34 -65 -66
-43 -80 5 -3 40 17 78 45 38 28 76 54 84 60 18 11 -6 34 -115 108 -102 70
-115 76 -115 53z"/>
<path d="M28970 9594 c-69 -30 -133 -63 -144 -73 -26 -27 -10 -73 30 -85 65
-19 74 -25 74 -50 0 -39 -34 -122 -91 -220 -46 -81 -49 -91 -39 -117 7 -16 16
-26 21 -23 18 11 91 126 135 214 29 57 46 104 47 131 2 42 2 43 -43 54 -31 7
-49 19 -59 37 -27 48 -6 68 120 122 128 54 147 66 104 66 -17 0 -86 -25 -155
-56z"/>
<path d="M25068 9543 c7 -3 16 -2 19 1 4 3 -2 6 -13 5 -11 0 -14 -3 -6 -6z"/>
<path d="M24933 9533 c9 -2 23 -2 30 0 6 3 -1 5 -18 5 -16 0 -22 -2 -12 -5z"/>
<path d="M24838 9523 c7 -3 16 -2 19 1 4 3 -2 6 -13 5 -11 0 -14 -3 -6 -6z"/>
<path d="M24718 9513 c7 -3 16 -2 19 1 4 3 -2 6 -13 5 -11 0 -14 -3 -6 -6z"/>
<path d="M24445 9493 c-32 -8 -45 -23 -45 -52 0 -34 8 -45 47 -65 18 -9 35
-26 37 -39 3 -12 19 -176 37 -365 l32 -343 -31 -32 c-54 -56 -39 -117 29 -117
39 0 40 0 25 22 -24 34 -20 54 20 94 34 33 36 39 31 82 -3 26 -18 173 -32 327
-34 368 -28 341 -75 370 -34 21 -40 30 -40 60 0 24 7 38 22 49 22 16 22 16 -7
15 -17 -1 -39 -4 -50 -6z"/>
<path d="M26253 9490 c-95 -22 -152 -101 -393 -538 -74 -134 -143 -252 -155
-263 -11 -10 -32 -30 -47 -43 -30 -27 -37 -66 -14 -85 15 -13 259 -54 285 -48
9 1 -27 9 -79 16 -52 7 -105 19 -117 27 -37 23 -29 88 12 104 35 13 61 54 205
315 73 132 161 283 196 336 59 90 131 169 155 169 5 0 7 5 4 10 -7 11 -7 11
-52 0z"/>
<path d="M30086 9435 c-19 -15 -19 -16 18 -54 33 -33 38 -44 32 -68 -18 -71
-18 -78 2 -96 12 -11 31 -17 48 -15 26 3 29 6 30 48 0 25 4 55 9 68 7 20 -1
32 -50 78 -31 30 -60 54 -63 54 -4 0 -16 -7 -26 -15z"/>
<path d="M28440 9365 c-80 -36 -149 -66 -155 -68 -7 -3 -6 -8 1 -16 7 -8 54 8
176 61 150 65 189 89 140 87 -9 0 -82 -29 -162 -64z"/>
<path d="M25015 9390 c60 -31 122 -98 156 -165 92 -187 38 -467 -104 -542 -41
-21 -26 -27 31 -13 67 16 115 58 154 137 28 58 33 78 36 165 7 161 -20 256
-95 339 -49 54 -109 88 -169 94 l-49 6 40 -21z"/>
<path d="M24013 9355 c-126 -46 -133 -51 -133 -85 0 -34 20 -56 59 -65 42 -9
54 -27 102 -164 44 -124 44 -124 97 -158 30 -19 55 -33 57 -31 2 1 -25 77 -58
168 l-62 165 -40 13 c-47 15 -65 35 -65 73 0 34 9 40 103 75 42 16 77 32 77
36 0 16 -47 6 -137 -27z"/>
<path d="M26896 9354 c-25 -24 -19 -60 14 -94 17 -18 30 -41 30 -56 0 -51 -92
-689 -100 -698 -5 -5 -5 -16 0 -27 9 -16 12 -16 40 -2 17 8 34 22 39 31 5 9
30 174 56 365 l48 348 -31 32 c-33 34 -40 64 -22 98 10 17 7 19 -24 19 -19 0
-42 -7 -50 -16z"/>
<path d="M27708 9259 c-12 -6 -18 -22 -18 -45 0 -29 6 -38 34 -55 19 -11 37
-27 41 -36 13 -34 45 -705 34 -724 -5 -11 -21 -26 -34 -35 -55 -36 -16 -125
48 -109 23 6 24 8 12 32 -17 32 -10 51 28 84 30 26 31 29 29 100 -4 143 -33
624 -38 641 -3 9 -20 28 -39 43 -27 20 -35 33 -35 59 0 17 5 37 12 44 9 9 4
12 -22 12 -19 0 -43 -5 -52 -11z"/>
<path d="M26246 9183 c-26 -40 -27 -40 -11 -104 8 -35 15 -75 15 -89 0 -36 10
-46 51 -53 41 -6 41 -21 7 153 -27 139 -29 143 -62 93z"/>
<path d="M23380 9124 c-80 -30 -151 -62 -158 -71 -22 -31 16 -93 58 -93 9 0
24 -8 34 -19 21 -23 247 -636 248 -673 1 -15 -5 -35 -12 -43 -12 -14 -11 -18
1 -26 29 -18 64 -10 82 20 9 16 17 38 17 50 0 23 -227 649 -242 668 -6 7 -28
18 -50 23 -28 8 -42 19 -49 38 -20 51 3 70 143 121 69 25 130 49 134 54 23 22
-79 -2 -206 -49z"/>
<path d="M28240 9154 c0 -3 9 -13 20 -22 25 -21 290 -633 290 -670 0 -15 -7
-36 -15 -46 -32 -43 -5 -96 48 -96 26 0 26 2 21 43 -5 32 -2 46 10 56 9 7 16
25 16 40 0 21 -189 471 -270 644 -8 16 -24 30 -39 33 -14 3 -36 10 -49 15 -27
11 -32 11 -32 3z"/>
<path d="M28891 8886 c-9 -11 11 -29 103 -90 64 -43 118 -81 121 -87 4 -5 -3
-25 -15 -44 -25 -41 -21 -78 11 -96 27 -14 77 -3 60 14 -17 17 -13 56 9 84 11
14 20 29 20 34 0 7 -228 162 -276 187 -17 9 -24 8 -33 -2z"/>
<path d="M26090 8799 c60 -10 108 -9 55 2 -22 4 -53 8 -70 7 -22 0 -19 -3 15
-9z"/>
<path d="M22622 8764 c-61 -30 -107 -80 -121 -131 -18 -62 -13 -216 14 -438
52 -429 55 -464 43 -491 -10 -20 -9 -27 3 -35 45 -28 79 9 79 90 0 24 -16 178
-36 340 -28 232 -35 323 -32 421 4 151 18 183 104 232 30 16 54 32 54 34 0 13
-64 0 -108 -22z"/>
<path d="M26203 8783 c9 -2 25 -2 35 0 9 3 1 5 -18 5 -19 0 -27 -2 -17 -5z"/>
<path d="M26271 8774 c22 -7 29 -34 29 -111 l0 -63 -39 -19 c-53 -28 -68 -73
-33 -104 16 -15 178 -45 188 -35 2 3 -17 8 -42 12 -56 7 -84 29 -84 66 0 29
19 49 64 68 l29 13 -6 80 c-3 44 -7 82 -9 84 -2 2 -28 6 -58 9 -30 3 -48 3
-39 0z"/>
<path d="M23640 8757 c0 -38 37 -68 257 -215 254 -168 296 -192 337 -192 28 0
35 14 11 24 -8 3 -142 89 -297 192 -277 183 -308 202 -308 191z"/>
<path d="M27452 8500 c-52 -52 -67 -72 -57 -77 27 -10 78 20 133 74 28 30 52
58 52 63 0 6 -13 10 -29 10 -22 0 -45 -16 -99 -70z"/>
<path d="M22727 8420 c4 -20 28 -53 69 -92 35 -34 64 -65 64 -70 0 -4 -25 -20
-55 -35 -36 -18 -55 -33 -55 -45 0 -10 2 -18 5 -18 15 0 185 92 185 99 0 12
-196 191 -210 191 -5 0 -7 -13 -3 -30z"/>
<path d="M22000 8411 c-186 -98 -286 -160 -297 -183 -11 -21 -7 -58 25 -234
l38 -209 44 -42 c25 -23 46 -41 47 -40 0 1 -19 115 -45 254 -43 238 -44 253
-29 277 9 13 63 50 119 82 191 105 192 106 177 115 -19 12 -17 12 -79 -20z"/>
<path d="M26443 8433 c9 -2 25 -2 35 0 9 3 1 5 -18 5 -19 0 -27 -2 -17 -5z"/>
<path d="M26570 8414 c41 -7 86 -12 100 -12 14 0 -9 6 -50 14 -41 7 -86 12
-100 12 -14 0 9 -6 50 -14z"/>
<path d="M26798 8397 c-50 -20 -32 -33 54 -41 32 -4 43 -3 28 2 -14 4 -29 18
-35 30 -11 24 -9 24 -47 9z"/>
<path d="M26928 8343 c12 -2 30 -2 40 0 9 3 -1 5 -23 4 -22 0 -30 -2 -17 -4z"/>
<path d="M27003 8333 c9 -2 25 -2 35 0 9 3 1 5 -18 5 -19 0 -27 -2 -17 -5z"/>
<path d="M27073 8323 c9 -2 25 -2 35 0 9 3 1 5 -18 5 -19 0 -27 -2 -17 -5z"/>
<path d="M27148 8313 c12 -2 30 -2 40 0 9 3 -1 5 -23 4 -22 0 -30 -2 -17 -4z"/>
<path d="M27223 8303 c9 -2 25 -2 35 0 9 3 1 5 -18 5 -19 0 -27 -2 -17 -5z"/>
<path d="M27293 8293 c9 -2 25 -2 35 0 9 3 1 5 -18 5 -19 0 -27 -2 -17 -5z"/>
<path d="M27363 8283 c9 -2 25 -2 35 0 9 3 1 5 -18 5 -19 0 -27 -2 -17 -5z"/>
<path d="M27443 8273 c9 -2 25 -2 35 0 9 3 1 5 -18 5 -19 0 -27 -2 -17 -5z"/>
<path d="M23037 8129 c-16 -9 -14 -14 18 -56 38 -50 41 -66 20 -103 -30 -52
-6 -100 48 -100 28 0 44 15 27 25 -15 9 -12 57 5 79 24 31 18 50 -31 110 -48
58 -57 62 -87 45z"/>
<path d="M21167 7952 c-98 -53 -183 -105 -188 -115 -22 -38 15 -87 65 -87 19
0 39 -7 48 -17 8 -10 86 -158 174 -329 l158 -312 -18 -40 c-20 -45 -15 -76 16
-93 26 -14 76 -3 59 14 -14 14 -15 64 -1 72 28 18 4 80 -146 374 -85 168 -162
312 -171 319 -9 6 -31 12 -49 12 -55 0 -86 68 -46 102 9 8 85 53 169 98 140
77 169 100 125 100 -9 0 -97 -44 -195 -98z"/>
<path d="M21960 7904 c0 -3 5 -37 11 -76 9 -60 22 -88 85 -193 72 -119 90
-174 64 -190 -15 -10 -12 -71 5 -85 15 -12 61 -17 71 -8 3 3 0 17 -7 30 -9 20
-8 32 5 56 9 17 16 39 16 49 0 15 -237 423 -246 423 -2 0 -4 -3 -4 -6z"/>
<path d="M21420 7585 c0 -18 43 -84 72 -111 88 -83 250 -204 285 -213 48 -14
63 -14 63 -1 0 6 -5 10 -11 10 -7 0 -77 53 -156 118 -228 185 -253 204 -253
197z"/>
<path d="M20334 7531 c-66 -31 -104 -56 -108 -69 -11 -32 10 -71 41 -77 65
-14 72 -22 139 -157 64 -131 66 -133 120 -161 29 -15 54 -24 53 -20 0 5 -35
78 -77 163 l-77 155 -44 11 c-49 11 -73 37 -69 74 2 20 19 33 90 70 49 25 88
48 88 53 0 19 -65 2 -156 -42z"/>
<path d="M19744 7246 c-126 -61 -164 -87 -164 -110 0 -2 11 -1 25 2 28 5 65
-21 65 -46 0 -9 9 -25 20 -37 22 -23 320 -635 320 -657 0 -8 -7 -23 -15 -34
-30 -39 -12 -104 30 -104 44 0 55 9 44 36 -6 18 -5 33 6 54 8 16 15 40 15 53
0 32 -286 627 -312 650 -11 9 -33 17 -49 17 -50 0 -79 70 -41 102 9 8 72 41
139 73 115 55 140 75 90 75 -12 -1 -90 -34 -173 -74z"/>
<path d="M19415 7094 c-121 -54 -140 -72 -122 -117 10 -24 22 -33 57 -41 43
-11 45 -12 107 -131 112 -216 196 -414 201 -476 4 -52 2 -59 -28 -93 -18 -20
-54 -48 -79 -62 l-46 -25 48 4 c92 9 187 91 187 163 0 50 -39 144 -157 386
l-107 218 -45 13 c-51 14 -82 56 -65 86 6 9 51 36 102 61 84 42 106 61 63 59
-9 0 -61 -21 -116 -45z"/>
<path d="M18845 6841 c-220 -97 -244 -115 -213 -163 11 -16 33 -29 61 -36 51
-13 47 -6 142 -257 78 -208 117 -284 176 -349 59 -64 131 -103 209 -111 l55
-6 -57 24 c-138 59 -187 131 -315 467 -41 107 -81 203 -90 212 -9 10 -29 18
-44 18 -51 0 -87 64 -55 99 9 10 95 53 191 96 96 42 172 81 169 86 -9 16 -25
10 -229 -80z"/>
<path d="M20042 6875 c8 -18 74 -58 259 -154 289 -152 310 -161 358 -161 36 1
36 1 11 14 -14 7 -160 83 -326 169 -166 87 -304 157 -307 157 -4 0 -1 -11 5
-25z"/>
<path d="M18229 6591 c-229 -62 -386 -168 -460 -314 -32 -61 -59 -183 -59
-262 0 -176 110 -364 258 -443 64 -34 191 -72 237 -71 23 0 15 5 -32 18 -197
57 -327 195 -379 403 -14 58 -15 79 -4 150 23 160 74 265 172 353 61 55 203
126 318 159 63 18 76 25 50 25 -19 -1 -65 -9 -101 -18z"/>
<path d="M18375 6450 c3 -5 13 -10 21 -10 8 0 32 -18 54 -40 45 -45 76 -61
103 -51 15 6 12 11 -20 43 -46 43 -65 53 -121 62 -29 4 -41 3 -37 -4z"/>
<path d="M17385 6244 c-138 -51 -135 -49 -135 -88 0 -36 27 -66 60 -66 30 0
57 -45 100 -168 40 -116 45 -125 87 -153 24 -17 46 -29 49 -26 2 2 -22 75 -53
163 -61 167 -56 159 -133 194 -8 4 -21 19 -28 34 -22 43 1 66 101 100 47 17
84 33 81 38 -8 13 -34 8 -129 -28z"/>
<path d="M18510 6196 c-273 -112 -279 -117 -259 -191 11 -40 40 -59 74 -51 23
6 23 7 8 46 -31 77 -16 89 238 190 164 66 191 80 144 79 -17 0 -109 -33 -205
-73z"/>
<path d="M16754 6016 c-78 -28 -149 -58 -158 -65 -36 -30 -12 -86 43 -101 49
-13 42 0 181 -384 94 -262 110 -314 101 -333 -14 -31 -15 -30 15 -37 35 -9 64
17 64 58 -1 40 -222 650 -245 676 -10 11 -28 20 -40 20 -30 0 -55 31 -55 69 0
36 8 40 180 101 52 18 99 37 105 42 25 22 -64 1 -191 -46z"/>
<path d="M18482 5982 c-10 -7 -7 -21 13 -63 43 -94 32 -148 -40 -187 -18 -10
-17 -11 13 -12 72 0 132 46 132 102 0 42 -39 136 -63 153 -24 17 -36 18 -55 7z"/>
<path d="M16057 5798 c-31 -11 -71 -33 -87 -49 -59 -59 -83 -209 -100 -619
-12 -305 -16 -336 -41 -369 -23 -29 -24 -50 -3 -79 12 -17 24 -22 47 -20 30 3
32 5 29 40 -2 26 3 46 18 66 21 28 23 49 36 343 24 529 46 624 159 675 30 14
55 27 55 30 0 10 -60 1 -113 -18z"/>
<path d="M16990 5656 c0 -2 5 -16 10 -32 8 -22 53 -57 191 -149 317 -211 358
-235 398 -234 32 0 34 2 17 12 -11 7 -153 101 -318 209 -164 109 -298 196
-298 194z"/>
<path d="M14905 5434 c-326 -93 -421 -124 -377 -124 7 0 24 -11 37 -25 l25
-24 0 23 c0 13 6 29 14 35 8 7 171 57 363 111 392 112 379 108 338 109 -16 0
-196 -47 -400 -105z"/>
<path d="M16137 5483 c-4 -3 -7 -22 -7 -42 1 -27 13 -52 50 -101 28 -36 48
-69 47 -74 -2 -5 -25 -17 -52 -26 -27 -9 -51 -22 -53 -28 -5 -17 2 -16 106 19
l93 31 -17 26 c-27 44 -124 169 -143 186 -10 9 -21 13 -24 9z"/>
<path d="M15143 5339 c38 -22 63 -112 47 -168 -5 -19 -24 -49 -41 -68 -26 -26
-30 -36 -23 -52 9 -19 11 -19 57 15 71 52 89 86 85 161 -3 53 -8 67 -33 93
-23 24 -37 30 -69 30 -33 -1 -37 -3 -23 -11z"/>
<path d="M14242 5256 c-89 -23 -170 -50 -179 -59 -13 -13 -21 -62 -35 -221
l-19 -205 35 -53 c20 -29 36 -47 36 -41 0 7 9 120 20 250 17 190 25 243 39
263 15 21 45 32 177 67 92 24 144 41 124 41 -19 0 -108 -19 -198 -42z"/>
<path d="M14586 5234 c-4 -10 0 -21 10 -28 16 -12 102 -280 174 -549 l43 -158
-22 -29 c-12 -17 -17 -30 -11 -30 19 0 50 -40 50 -65 0 -18 4 -23 16 -18 11 4
12 9 5 16 -18 18 -13 63 9 82 12 11 20 31 20 52 0 36 -53 235 -130 489 -65
214 -64 210 -97 219 -15 3 -35 13 -44 21 -15 13 -17 13 -23 -2z"/>
<path d="M16387 5118 c-15 -5 -27 -13 -25 -16 2 -4 16 -31 31 -60 l28 -54 -25
-37 c-14 -20 -26 -46 -26 -57 0 -30 33 -56 67 -52 26 3 28 6 25 43 -3 31 2 45
17 59 12 11 21 31 21 45 0 26 -65 142 -78 140 -4 0 -20 -5 -35 -11z"/>
<path d="M13456 5064 c-98 -24 -185 -49 -192 -55 -30 -25 -7 -99 31 -99 7 0
22 -8 34 -17 18 -15 33 -75 91 -346 39 -180 70 -343 70 -361 0 -19 -7 -39 -15
-46 -11 -9 -15 -27 -13 -59 3 -46 3 -46 42 -49 34 -3 38 -1 31 15 -18 43 -16
61 9 88 14 15 26 38 26 51 0 23 -134 657 -145 685 -3 9 -25 25 -48 35 -37 17
-42 24 -45 55 -2 24 2 40 13 49 9 7 94 33 188 56 95 23 156 42 137 42 -19 0
-116 -20 -214 -44z"/>
<path d="M12670 4891 c-201 -42 -374 -80 -385 -85 -18 -7 -17 -9 11 -21 31
-13 52 -54 38 -76 -3 -6 2 -19 11 -29 11 -12 40 -131 86 -351 38 -183 69 -342
69 -354 0 -12 -9 -30 -20 -40 -19 -17 -19 -18 11 -46 22 -20 30 -35 26 -49 -4
-15 0 -20 13 -20 17 0 17 2 3 31 -14 29 -14 33 6 57 46 57 46 48 -24 387 -36
176 -70 335 -76 353 -8 24 -21 38 -45 48 -18 8 -38 23 -44 35 -16 28 -4 68 23
79 12 6 177 42 367 80 376 77 381 79 330 78 -19 0 -199 -35 -400 -77z"/>
<path d="M15303 4953 c-9 -3 -3 -16 17 -42 70 -86 54 -215 -33 -270 l-32 -21
36 0 c43 0 94 32 126 79 66 98 -21 292 -114 254z"/>
<path d="M14230 4843 c0 -5 -5 -46 -11 -90 -10 -78 -10 -82 30 -220 23 -78 41
-148 41 -156 0 -9 -11 -29 -25 -45 -14 -17 -25 -41 -25 -54 0 -35 33 -62 64
-54 22 5 24 9 16 31 -11 28 -1 64 24 84 26 22 19 62 -45 290 -57 202 -69 239
-69 214z"/>
<path d="M13045 4765 c50 -29 115 -46 115 -31 0 2 -22 18 -48 35 -34 21 -61
31 -88 31 l-39 -1 60 -34z"/>
<path d="M11996 4760 c-88 -16 -170 -33 -182 -39 -29 -13 -37 -43 -70 -248
l-25 -163 32 -61 c18 -34 34 -58 36 -53 1 5 20 118 42 252 22 134 44 249 51
256 18 22 57 33 195 56 71 12 131 23 134 26 10 9 -62 1 -213 -26z"/>
<path d="M13624 4660 c3 -14 11 -47 16 -74 8 -37 35 -82 111 -188 105 -144
144 -178 206 -178 l28 0 -42 38 c-23 20 -101 120 -174 222 -151 212 -152 214
-145 180z"/>
<path d="M11195 4624 c-207 -36 -225 -43 -225 -88 0 -29 10 -40 48 -60 18 -9
37 -27 42 -39 18 -43 101 -696 91 -714 -5 -10 -19 -27 -30 -37 -26 -24 -27
-60 -1 -86 21 -21 41 -24 74 -11 14 5 16 10 8 15 -21 13 -14 65 13 88 20 17
25 31 25 67 0 76 -87 681 -100 696 -7 8 -19 15 -26 15 -24 0 -54 39 -54 70 0
44 26 55 193 81 81 13 147 27 147 31 0 4 -1 8 -2 7 -2 0 -93 -16 -203 -35z"/>
<path d="M13063 4630 c-12 -5 -29 -22 -37 -38 -21 -41 -40 -53 -104 -67 -86
-19 -30 -18 67 2 75 14 85 19 102 47 10 17 22 36 28 43 7 8 5 13 -5 17 -19 7
-23 7 -51 -4z"/>
<path d="M13052 4393 c-19 -7 36 -43 65 -43 38 0 34 17 -7 34 -22 9 -41 16
-43 15 -1 0 -8 -3 -15 -6z"/>
<path d="M11933 4259 l-21 -104 23 -115 c32 -151 32 -180 0 -210 -17 -16 -25
-34 -25 -56 0 -38 21 -54 70 -54 27 0 31 3 25 18 -16 39 -15 49 14 86 17 21
31 49 31 62 0 19 -83 436 -93 468 -2 6 -13 -37 -24 -95z"/>
<path d="M13244 4242 c-6 -4 -26 -31 -44 -60 -34 -55 -88 -94 -150 -108 -19
-4 -30 -9 -24 -11 6 -2 44 3 84 11 83 18 128 47 167 109 15 23 34 48 42 55 12
10 8 12 -25 12 -21 0 -44 -4 -50 -8z"/>
<path d="M11334 4213 c2 -10 8 -48 11 -85 7 -60 14 -78 85 -192 42 -69 85
-135 94 -145 27 -30 84 -54 112 -47 l24 6 -33 29 c-18 16 -90 124 -161 240
-71 116 -130 211 -133 211 -2 0 -2 -8 1 -17z"/>
</g>
</svg>
